<svg xmlns="http://www.w3.org/2000/svg" viewBox="0 0 48 48" fill="none">
  <path d="M11 18V13.5C11 7.7 16.8 4 24 4s13 3.7 13 9.5V18" stroke="#89919d" stroke-width="3.25" stroke-linecap="round"/>
  <path d="M7 17h34l-3.6 22.2A3.2 3.2 0 0 1 34.2 42H13.8a3.2 3.2 0 0 1-3.2-2.8L7 17Z" fill="#aeb5be"/>
  <path d="M6 15.5h36a2 2 0 0 1 2 2v2.1a2 2 0 0 1-2 2H6a2 2 0 0 1-2-2v-2.1a2 2 0 0 1 2-2Z" fill="#d2d7dc"/>
  <path d="M21 25.5h6v5h-6zM14.5 29.3h6v5h-6zM27.5 29.3h6v5h-6zM21 33.2h6v5h-6z" fill="#e45f3f"/>
  <path d="M20 24.5h6v5h-6zM13.5 28.3h6v5h-6zM26.5 28.3h6v5h-6zM20 32.2h6v5h-6z" fill="#b63f2d"/>
</svg>
